<?xml version="1.0" encoding="UTF-8" standalone="no"?>
<!-- Created with Inkscape (http://www.inkscape.org/) -->

<svg
   width="115"
   height="80"
   viewBox="0 0 30.427085 21.166666"
   version="1.1"
   id="svg1"
   xml:space="preserve"
   xmlns="http://www.w3.org/2000/svg"
   xmlns:svg="http://www.w3.org/2000/svg"><defs
     id="defs1" /><g
     id="layer1"><path
       style="fill:#000000"
       d="M 5.6847929,19.638698 C 3.599962,19.004521 1.6583174,17.132429 1.1578798,15.273946 0.04528316,11.142077 2.64307,7.0410723 6.5798033,6.7146083 7.8491597,6.6093433 8.0234791,6.5155113 8.4618177,5.7015653 9.1509064,4.4220049 10.91004,2.7442711 12.317834,2.0239758 c 3.59383,-1.83877555 7.650296,-1.33585485 10.771051,1.3353947 1.165001,0.9971976 2.970538,4.2291278 2.970538,5.3172948 0,0.344251 0.114919,0.62591 0.255376,0.62591 0.526309,0 2.226548,1.7540067 2.690764,2.7758557 1.32756,2.922273 -0.373503,6.685984 -3.401929,7.526985 -1.154337,0.320562 -18.8770696,0.350174 -19.9188411,0.03328 z M 24.471923,18.284795 c 1.22821,-0.191946 1.605417,-0.394515 2.418151,-1.298603 1.180988,-1.313735 1.457202,-2.528405 0.885886,-3.895756 -0.514141,-1.230513 -1.269416,-2.060552 -2.241237,-2.463093 -0.621475,-0.257424 -0.783997,-0.5441 -1.036726,-1.8286977 -0.924148,-4.6973553 -5.859915,-7.5106692 -10.439376,-5.95029 -1.616874,0.5509241 -3.947707,2.679393 -4.5628717,4.16672 l -0.473054,1.143737 -1.4696572,-0.01626 c -2.964907,-0.03281 -5.32113,2.2941177 -5.3003047,5.2344047 0.014514,2.049147 1.9850912,4.410591 4.0835447,4.893521 1.3439064,0.309281 16.1733439,0.320991 18.1356449,0.01432 z"
       id="path1" /></g></svg>
