<?xml version="1.0" encoding="UTF-8" standalone="no"?>
<!-- Created with Inkscape (http://www.inkscape.org/) -->

<svg
   width="115"
   height="80"
   viewBox="0 0 30.427085 21.166666"
   version="1.1"
   id="svg1"
   xml:space="preserve"
   inkscape:export-filename="snow.svg"
   inkscape:export-xdpi="96"
   inkscape:export-ydpi="96"
   xmlns:inkscape="http://www.inkscape.org/namespaces/inkscape"
   xmlns:sodipodi="http://sodipodi.sourceforge.net/DTD/sodipodi-0.dtd"
   xmlns="http://www.w3.org/2000/svg"
   xmlns:svg="http://www.w3.org/2000/svg"><sodipodi:namedview
     id="namedview1"
     pagecolor="#ffffff"
     bordercolor="#000000"
     borderopacity="0.25"
     inkscape:showpageshadow="2"
     inkscape:pageopacity="0.0"
     inkscape:pagecheckerboard="0"
     inkscape:deskcolor="#d1d1d1"
     inkscape:document-units="mm"><inkscape:page
       x="0"
       y="0"
       width="30.427086"
       height="21.166666"
       id="page2"
       margin="0"
       bleed="0" /></sodipodi:namedview><defs
     id="defs1" /><g
     inkscape:label="Layer 1"
     inkscape:groupmode="layer"
     id="layer1"><path
       style="fill:#000000;stroke-width:1.33386"
       d="m 14.278544,19.829134 c -1.573778,-0.472382 -2.955578,-2.095171 -3.352883,-3.937632 -0.217582,-1.009009 0.173501,-2.570302 0.910049,-3.633143 0.599996,-0.865793 0.616149,-0.988303 0.617015,-4.6794711 7.88e-4,-3.3628942 0.05417,-3.877776 0.473225,-4.565094 0.999088,-1.6386348 2.78492,-2.12967047 4.522128,-1.2434128 1.48714,0.7586822 1.660834,1.3390014 1.723757,5.7591564 0.05456,3.8318775 0.06098,3.8740925 0.743844,4.8813675 2.57222,3.794233 -1.194902,8.751605 -5.637135,7.418229 z m 3.496766,-1.485519 c 0.509327,-0.292001 1.124373,-0.903617 1.366767,-1.359147 0.766747,-1.440943 0.472126,-3.606188 -0.613253,-4.506975 C 18.21701,12.218711 18.156603,11.495251 18.156603,8.019672 V 3.8707672 L 17.461791,3.1759559 c -0.513626,-0.5136258 -0.9206,-0.6948112 -1.560668,-0.6948112 -2.12565,0 -2.498492,0.8702654 -2.498492,5.8318405 0,3.6786728 -0.0052,3.7145608 -0.653671,4.5648298 -0.854743,1.120626 -0.931667,3.217497 -0.156418,4.263787 1.303997,1.759899 3.372771,2.2397 5.182768,1.202013 z m -3.165948,-1.740533 c -1.026904,-0.864083 -1.034801,-2.177095 -0.01823,-3.032476 0.450977,-0.379471 0.713097,-0.824104 0.713097,-1.209624 0,-0.491765 0.114858,-0.609592 0.594246,-0.609592 0.499264,0 0.594246,0.111831 0.594246,0.699618 0,0.421347 0.182204,0.827238 0.458092,1.020476 0.789591,0.553051 1.080092,1.476554 0.730194,2.321282 -0.296827,0.716605 -1.286674,1.425693 -1.99019,1.425693 -0.192562,0 -0.679214,-0.27692 -1.081446,-0.615377 z"
       id="path1" /></g></svg>
