<?xml version="1.0" encoding="UTF-8" standalone="no"?>
<!-- Created with Inkscape (http://www.inkscape.org/) -->

<svg
   width="115"
   height="80"
   viewBox="0 0 30.427085 21.166666"
   version="1.1"
   id="svg1"
   xml:space="preserve"
   xmlns="http://www.w3.org/2000/svg"
   xmlns:svg="http://www.w3.org/2000/svg"><defs
     id="defs1" /><g
     id="layer1"><path
       style="fill:#000000"
       d="M 4.5883684,19.8606 C 2.9162711,19.45353 1.3392461,18.084258 0.63680512,16.429605 -0.82093845,12.995781 1.9335681,8.6319966 5.5588097,8.6319966 c 0.7605313,0 0.9253544,-0.101457 1.3024854,-0.801747 0.70852,-1.315642 2.2034764,-2.6611162 3.7887539,-3.4099137 1.318138,-0.6226149 1.728528,-0.7042658 3.550098,-0.7063257 1.774445,-0.00201 2.160825,-0.074483 2.790161,-0.5233768 1.830994,-1.306014 4.26783,-1.5913103 6.127119,-0.7173415 0.987388,0.4641272 2.868592,2.2484189 2.868592,2.7208132 0,0.1286805 0.319132,0.2339655 0.709183,0.2339655 1.957801,0 3.639003,1.876198 3.639003,4.061077 0,1.3700194 -0.336252,2.1684244 -1.295467,3.0759854 -0.8438,0.798361 -1.6805,1.101606 -3.039505,1.101606 h -1.10125 l 0.109898,0.97501 c 0.251993,2.235675 -1.247035,4.618546 -3.256377,5.176369 -1.028955,0.285654 -16.011939,0.322739 -17.1631356,0.04248 z M 21.820837,18.379947 c 0.339888,-0.176844 0.875436,-0.597074 1.190108,-0.933845 0.495061,-0.52983 0.572129,-0.823595 0.572129,-2.18081 0,-1.414854 -0.06428,-1.635595 -0.656228,-2.253454 C 22.565921,12.635113 21.985723,12.208876 21.637517,12.064645 21.143455,11.859998 20.972419,11.602303 20.858718,10.891257 19.798974,4.2639837 10.86724,2.8091253 7.837683,8.7703066 l -0.5445617,1.07152 -1.3859402,0.03558 C 1.1561993,9.9993726 -0.1305574,16.130633 4.1306647,18.342321 5.1024929,18.846726 20.85929,18.88024 21.820837,18.379951 Z m 6.084133,-6.56423 c 1.362565,-1.071794 1.603343,-2.6878444 0.608604,-4.0848254 -0.532995,-0.748522 -1.778702,-1.253242 -2.743614,-1.111624 -0.54789,0.08041 -0.677358,-0.01155 -0.905852,-0.643439 -0.601948,-1.6646552 -3.032165,-3.0524293 -4.773301,-2.7257902 -0.932824,0.1749988 -2.343456,0.8161694 -2.343456,1.0651644 0,0.096509 0.445645,0.4820834 0.990323,0.8568314 1.55355,1.0688704 2.915888,3.1210274 3.248336,4.8931288 0.0936,0.498938 0.318863,0.89095 0.555039,0.96591 0.218626,0.06939 0.637709,0.38185 0.931295,0.694358 0.472413,0.502861 0.723019,0.568197 2.179427,0.568197 1.322301,0 1.765008,-0.0939 2.253199,-0.477911 z"
       id="path1" /></g></svg>
