<?xml version="1.0" encoding="UTF-8" standalone="no"?>
<!-- Created with Inkscape (http://www.inkscape.org/) -->

<svg
   width="115"
   height="80"
   viewBox="0 0 30.427085 21.166666"
   version="1.1"
   id="svg1"
   xml:space="preserve"
   xmlns="http://www.w3.org/2000/svg"
   xmlns:svg="http://www.w3.org/2000/svg"><defs
     id="defs1" /><g
     id="layer1"><path
       style="fill:#000000;stroke-width:0.882395"
       d="m 11.28125,20.635306 c 0,-0.06596 0.419522,-1.675296 0.932271,-3.576299 0.51275,-1.901003 0.93299,-3.535164 0.933868,-3.631469 8.79e-4,-0.09631 -0.420645,-0.175101 -0.936719,-0.175101 -0.856546,0 -0.926809,-0.04578 -0.806279,-0.5253 0.07262,-0.288916 0.366564,-1.418313 0.653207,-2.509771 l 0.521169,-1.98447 2.742835,-0.06583 2.742835,-0.06583 -0.15724,0.6494982 C 17.820717,9.1079583 17.66028,9.6434576 17.550675,9.9407321 17.187282,10.926342 17.30262,11.12068 18.295773,11.196179 l 0.944381,0.07179 -2.15129,2.568138 c -4.952738,5.912413 -5.807614,6.91325 -5.807614,6.799201 z M 5.7857368,16.54935 C 4.5279901,15.978029 3.0108642,14.216229 2.6419295,12.898526 1.6823654,9.4712987 3.9875116,5.8511808 7.4009639,5.424698 8.6018217,5.2746607 8.6933958,5.2121731 9.6033641,3.9218399 13.613857,-1.7650359 22.720927,-0.1972778 24.428205,6.4738973 c 0.228395,0.8924528 0.480902,1.3046229 0.992278,1.6197094 1.449583,0.8931653 2.203461,2.3392843 2.203461,4.2267643 0,1.872891 -0.973462,3.401708 -2.731644,4.29003 -0.606747,0.306559 -1.546822,0.37751 -5.001872,0.37751 h -4.254697 l 0.548327,-0.583667 c 0.532522,-0.566845 0.639684,-0.583706 3.717803,-0.58497 1.743211,-7.17e-4 3.558819,-0.109436 4.034682,-0.241599 1.038569,-0.288445 2.221894,-1.62618 2.432764,-2.750211 C 26.667855,11.23606 25.593475,9.4204228 23.993207,8.8120022 23.62615,8.6724473 23.453165,8.3605286 23.360761,7.6716022 22.965498,4.7247005 20.296236,2.1427262 17.158536,1.6721992 14.648532,1.2958008 11.53905,2.9592746 10.247647,5.3693062 l -0.7174,1.3388174 -1.1673347,0.00874 c -2.252117,0.016872 -3.9288858,1.283326 -4.5695727,3.4513704 -0.6155377,2.082942 0.9907507,4.78561 3.2106126,5.402029 0.4906135,0.136237 1.7442032,0.248287 2.7857534,0.249004 l 1.8937274,0.0013 -0.111574,0.583668 c -0.110351,0.577259 -0.137548,0.583611 -2.4773961,0.57854 -1.788023,-0.0039 -2.5961037,-0.109732 -3.3087261,-0.433434 z"
       id="path1" /></g></svg>
