<?xml version="1.0" encoding="UTF-8" standalone="no"?>
<!-- Created with Inkscape (http://www.inkscape.org/) -->

<svg
   width="115"
   height="80"
   viewBox="0 0 30.427085 21.166666"
   version="1.1"
   id="svg1"
   xml:space="preserve"
   inkscape:export-filename="rain.svg"
   inkscape:export-xdpi="96"
   inkscape:export-ydpi="96"
   xmlns:inkscape="http://www.inkscape.org/namespaces/inkscape"
   xmlns:sodipodi="http://sodipodi.sourceforge.net/DTD/sodipodi-0.dtd"
   xmlns="http://www.w3.org/2000/svg"
   xmlns:svg="http://www.w3.org/2000/svg"><sodipodi:namedview
     id="namedview1"
     pagecolor="#ffffff"
     bordercolor="#000000"
     borderopacity="0.25"
     inkscape:showpageshadow="2"
     inkscape:pageopacity="0.0"
     inkscape:pagecheckerboard="0"
     inkscape:deskcolor="#d1d1d1"
     inkscape:document-units="mm"><inkscape:page
       x="0"
       y="0"
       width="30.427086"
       height="21.166666"
       id="page2"
       margin="0"
       bleed="0" /></sodipodi:namedview><defs
     id="defs1" /><g
     inkscape:label="Layer 1"
     inkscape:groupmode="layer"
     id="layer1"><path
       style="fill:#000000;stroke-width:0.872768"
       d="M 8.8909161,20.021451 C 6.5545067,19.192839 5.1072118,17.078562 5.1072118,14.494037 c 0,-1.407624 -0.051148,-1.561444 -0.7010538,-2.108303 C 4.0205784,12.06129 3.536183,11.470494 3.3297238,11.072852 2.8781886,10.203195 2.8327513,8.0389753 3.2490746,7.2314518 4.2415311,5.3064286 6.4920278,4.19755 8.3844539,4.7011162 c 1.2785497,0.3402161 2.4253741,1.2134706 2.8995851,2.2079019 0.343789,0.7209317 0.750772,1.0461416 0.750772,0.5999228 0,-0.4859138 2.123552,-2.2656512 3.463799,-2.9029903 1.303392,-0.6198132 1.744165,-0.711883 3.348339,-0.699409 2.390192,0.018587 4.06777,0.6531036 5.617775,2.1248357 1.215296,1.1539246 2.208055,2.8707143 2.471221,4.2735147 0.08804,0.469258 0.248794,0.853197 0.357246,0.853197 0.437696,0 1.928538,1.555005 2.322713,2.422678 1.109089,2.441365 -0.09193,5.398784 -2.62161,6.45549 -1.226217,0.51222 -16.652916,0.499603 -18.1033779,-0.0148 z M 26.767425,18.684927 c 1.520088,-0.790901 2.352738,-2.618501 1.861988,-4.086922 -0.31823,-0.95221 -1.189564,-1.930302 -2.029578,-2.278246 C 26.083281,12.105794 25.931042,11.833064 25.697793,10.703787 25.190696,8.2486632 23.102476,6.0024523 20.734306,5.3647703 19.373199,4.9982625 17.187784,5.1945921 15.951179,5.7944686 14.583681,6.4578408 13.086979,7.9560791 12.588986,9.1601143 L 12.192407,10.118949 H 10.90128 c -4.7706646,0 -6.3379037,6.203216 -2.1291267,8.427196 0.7797076,0.412009 1.4130297,0.44352 9.1048537,0.453016 6.6652,0.0082 8.387667,-0.05265 8.890418,-0.314234 z M 6.1222429,11.136717 C 6.6517567,10.240323 8.4055556,9.1117245 9.5545071,8.9279997 10.671013,8.7494635 10.761309,8.5774494 10.275711,7.5541247 9.7653208,6.4785584 8.7272616,5.8488928 7.4626736,5.8477934 c -2.9861827,-0.0026 -4.4229084,3.0385413 -2.556475,5.4113276 0.5940006,0.755149 0.704215,0.744054 1.2160443,-0.122404 z m -3.8607257,3.06842 c -0.3607509,-0.398625 -0.345137,-0.460806 0.2616965,-1.04219 0.5012375,-0.480216 0.7070932,-0.556515 0.9219076,-0.341701 0.407023,0.407023 0.3409025,0.73602 -0.2616964,1.302132 -0.5206922,0.489165 -0.5507936,0.491835 -0.9219077,0.08176 z M 0.25789297,8.9497187 c 0,-0.5287158 0.080148,-0.5842029 0.75048993,-0.5195699 0.575209,0.055461 0.7677239,0.1937088 0.8242804,0.5919305 0.064699,0.4555574 -0.027762,0.5195699 -0.7504898,0.5195699 -0.73071888,0 -0.82428053,-0.067189 -0.82428053,-0.5919305 z M 11.270655,5.2028611 C 10.90232,4.7958559 10.91287,4.7421537 11.462615,4.2256954 c 0.547518,-0.5143669 0.604793,-0.5234131 0.974317,-0.153889 0.369524,0.3695241 0.35824,0.4269662 -0.19196,0.9771658 -0.567718,0.5677182 -0.595793,0.5721526 -0.974317,0.1538889 z M 2.3728417,4.8468231 C 1.8829635,4.3253716 1.8804585,4.2965262 2.2926605,3.9234882 2.6927139,3.5614449 2.7501838,3.5725135 3.2538167,4.1086061 3.6981772,4.5816063 3.7395227,4.7389842 3.4963901,5.031941 3.1054851,5.502953 2.9679563,5.4802936 2.3728417,4.8468231 Z M 6.7236518,2.7295108 c 0,-0.7081544 0.071471,-0.8082196 0.5772995,-0.8082196 0.5058251,0 0.5772996,0.1000652 0.5772996,0.8082196 0,0.7081545 -0.071472,0.8082198 -0.5772996,0.8082198 -0.505825,0 -0.5772995,-0.1000653 -0.5772995,-0.8082198 z"
       id="path1" /></g></svg>
