<?xml version="1.0" encoding="UTF-8" standalone="no"?>
<!-- Created with Inkscape (http://www.inkscape.org/) -->

<svg
   width="115"
   height="80"
   viewBox="0 0 30.427085 21.166666"
   version="1.1"
   id="svg1"
   xml:space="preserve"
   xmlns="http://www.w3.org/2000/svg"
   xmlns:svg="http://www.w3.org/2000/svg"><defs
     id="defs1" /><g
     id="layer1"><path
       style="fill:#000000;stroke-width:0.920684"
       d="m 9.9381166,20.938322 c -0.338858,-0.257318 -0.599037,-0.980469 -0.476656,-1.324834 0.05363,-0.150917 0.342938,-0.678839 0.6429014,-1.173161 l 0.545384,-0.898766 0.600814,0.976778 c 0.678723,1.103439 0.760516,1.76085 0.282866,2.273547 -0.358202,0.384485 -1.182221,0.460123 -1.5953094,0.146436 z m 4.8956094,-0.07801 c -0.589597,-0.48952 -0.566893,-1.098603 0.08143,-2.184312 0.320259,-0.536327 0.634506,-0.975139 0.698326,-0.975139 0.224595,0 1.230785,1.840089 1.230785,2.250819 0,0.939669 -1.277674,1.517096 -2.010534,0.908632 z m 4.889855,-0.109924 c -0.213533,-0.213533 -0.382964,-0.565522 -0.382964,-0.7956 0,-0.395376 1.023856,-2.253925 1.241665,-2.253925 0.197435,0 1.254691,1.942181 1.254691,2.304869 0,0.524423 -0.667687,1.12762 -1.248178,1.12762 -0.303989,0 -0.623811,-0.141561 -0.865214,-0.382964 z M 7.7553286,16.129982 C 6.1866121,15.753003 4.6418112,14.479906 3.8871892,12.942182 3.5582924,12.271973 3.5043578,11.942264 3.5043578,10.601848 c 0,-1.3584192 0.052663,-1.6712146 0.4071191,-2.418345 0.8886689,-1.8731288 3.0224119,-3.2764674 4.9817907,-3.2764674 0.53054,0 0.615453,-0.067816 1.1312564,-0.9034831 1.712232,-2.7740344 5.106501,-4.34511897 8.195007,-3.79317264 3.199857,0.57184599 5.906062,3.09811644 6.589309,6.15118854 0.15798,0.7059257 0.269926,0.880191 0.721729,1.1235029 1.381613,0.7440481 2.295377,2.3574659 2.295377,4.0529097 0,1.863177 -1.081016,3.555056 -2.755092,4.311945 l -0.815536,0.368723 -7.957135,0.02605 c -4.376424,0.01433 -8.220709,-0.0373 -8.5428544,-0.114711 z M 23.847959,14.881595 c 0.925546,-0.198494 2.093227,-1.14395 2.4411,-1.976526 0.310618,-0.743415 0.282014,-2.014498 -0.0624,-2.772626 C 25.88266,9.3752082 25.028023,8.5945404 24.268702,8.3439417 23.770391,8.1794843 23.709242,8.1004015 23.709242,7.6204035 c 0,-0.296395 -0.143028,-0.9634713 -0.31784,-1.4823918 C 21.717042,1.1677494 15.59507,-0.22936824 12.058151,3.5516102 11.548168,4.0967829 10.964934,4.9236894 10.755196,5.3989344 L 10.375493,6.2592993 9.2022486,6.2462625 C 8.2166069,6.23531 7.8866043,6.3031534 7.1384436,6.670549 5.7313467,7.3615256 4.8396321,8.6914767 4.7165082,10.282754 c -0.17327,2.239387 1.4705835,4.290722 3.7025523,4.620347 1.2177721,0.179845 14.5768625,0.161224 15.4289005,-0.02151 z"
       id="path1" /></g></svg>
