<?xml version="1.0" encoding="UTF-8" standalone="no"?>
<!-- Created with Inkscape (http://www.inkscape.org/) -->

<svg
   width="115"
   height="80"
   viewBox="0 0 30.427085 21.166666"
   version="1.1"
   id="svg1"
   xml:space="preserve"
   inkscape:export-filename="lightning.svg"
   inkscape:export-xdpi="96"
   inkscape:export-ydpi="96"
   xmlns:inkscape="http://www.inkscape.org/namespaces/inkscape"
   xmlns:sodipodi="http://sodipodi.sourceforge.net/DTD/sodipodi-0.dtd"
   xmlns="http://www.w3.org/2000/svg"
   xmlns:svg="http://www.w3.org/2000/svg"><sodipodi:namedview
     id="namedview1"
     pagecolor="#ffffff"
     bordercolor="#000000"
     borderopacity="0.25"
     inkscape:showpageshadow="2"
     inkscape:pageopacity="0.0"
     inkscape:pagecheckerboard="0"
     inkscape:deskcolor="#d1d1d1"
     inkscape:document-units="mm"><inkscape:page
       x="0"
       y="0"
       width="30.427086"
       height="21.166666"
       id="page2"
       margin="0"
       bleed="0" /></sodipodi:namedview><defs
     id="defs1" /><g
     inkscape:label="Layer 1"
     inkscape:groupmode="layer"
     id="layer1"><path
       style="fill:#000000;stroke-width:0.854316"
       d="m 10.273833,20.507662 c 0,-0.637481 -0.0663,-0.666487 -0.7217201,-0.315719 C 8.8392451,20.573458 8.5491383,19.947485 9.2060754,19.445286 9.6967323,19.070201 9.6984131,19.053437 9.2764454,18.74335 9.0047116,18.543664 8.898258,18.28468 8.9898272,18.046055 c 0.1356551,-0.353512 0.1848209,-0.353971 0.7148399,-0.0066 0.5581679,0.365726 0.5691659,0.36151 0.5691659,-0.218159 0,-0.4404 0.115251,-0.591092 0.452075,-0.591092 0.333196,0 0.452076,0.150692 0.452076,0.573048 0,0.512735 0.05013,0.546216 0.476343,0.318117 0.753506,-0.403265 1.146641,0.145426 0.489266,0.682861 l -0.503636,0.411745 0.503636,0.341788 c 0.668733,0.453829 0.245708,1.017266 -0.474406,0.631873 -0.650558,-0.348168 -0.717241,-0.318592 -0.717241,0.318117 0,0.351614 -0.128088,0.565094 -0.339057,0.565094 -0.210968,0 -0.339056,-0.21348 -0.339056,-0.565094 z m 1.017169,-1.331591 c 0,-0.235092 -0.183962,-0.540244 -0.408804,-0.678114 -0.325419,-0.19954 -0.472098,-0.165505 -0.719098,0.166864 -0.4417745,0.594462 -0.1784333,1.090182 0.535174,1.007427 0.406417,-0.04713 0.592728,-0.203094 0.592728,-0.496177 z m 3.955663,1.331591 c 0,-0.607733 -0.211089,-0.715665 -0.613211,-0.313544 -0.138352,0.138353 -0.36213,0.183208 -0.497283,0.09968 -0.409819,-0.253283 -0.275784,-0.763303 0.243951,-0.928261 l 0.489685,-0.155419 -0.500711,-0.377686 c -0.335308,-0.252924 -0.450716,-0.507968 -0.349369,-0.772076 0.136594,-0.355959 0.20122,-0.361707 0.663231,-0.05898 0.56564,0.370621 0.789745,0.269357 0.789745,-0.356854 0,-0.227921 0.152575,-0.414402 0.339056,-0.414402 0.210186,0 0.339057,0.212942 0.339057,0.560249 0,0.519726 0.04205,0.541091 0.581282,0.295398 0.815773,-0.371691 1.164049,0.180834 0.471979,0.748772 -0.46566,0.382139 -0.469363,0.414586 -0.08029,0.703775 0.252814,0.187916 0.352272,0.448046 0.261625,0.684272 -0.134282,0.34993 -0.190757,0.351939 -0.690416,0.02455 -0.527041,-0.34533 -0.544172,-0.337946 -0.544172,0.234535 0,0.4404 -0.115251,0.591092 -0.452076,0.591092 -0.331522,0 -0.452075,-0.150692 -0.452075,-0.565095 z m 1.01717,-1.469246 c 0,-0.74155 -0.904999,-0.93555 -1.125365,-0.241237 -0.197882,0.623474 0.04729,0.959962 0.638109,0.875768 0.350532,-0.04995 0.487256,-0.228001 0.487256,-0.634531 z m 3.955662,1.469246 c 0,-0.616994 -0.211545,-0.715211 -0.632906,-0.293848 -0.210969,0.210967 -0.334035,0.207402 -0.553792,-0.01605 -0.226659,-0.230462 -0.18097,-0.370319 0.230977,-0.707044 L 19.7773,19.070967 19.315222,18.747314 c -0.287341,-0.201261 -0.409091,-0.461733 -0.321959,-0.688799 0.126368,-0.329307 0.204514,-0.331847 0.796196,-0.02588 0.640453,0.331191 0.656075,0.325675 0.656075,-0.231629 0,-0.356774 0.127169,-0.570899 0.339057,-0.570899 0.214679,0 0.339057,0.216167 0.339057,0.589277 0,0.43409 0.08929,0.553145 0.339056,0.452076 0.186482,-0.07546 0.478507,-0.193906 0.648946,-0.263212 0.537412,-0.218528 0.621095,0.547819 0.09081,0.831618 l -0.486618,0.26043 0.474616,0.384321 c 0.682488,0.552644 0.319998,1.099507 -0.485529,0.732484 -0.539239,-0.245693 -0.581282,-0.224328 -0.581282,0.295399 0,0.409557 -0.121596,0.560249 -0.452075,0.560249 -0.331524,0 -0.452076,-0.150692 -0.452076,-0.565095 z m 1.193826,-1.073679 c 0.141398,-0.39434 -0.243936,-1.073681 -0.609008,-1.073681 -0.439828,0 -0.883144,0.615778 -0.73022,1.014293 0.15802,0.411794 1.196358,0.457839 1.339228,0.05938 z M 6.7702465,15.665817 C 4.8458308,14.762985 3.7186853,13.131218 3.5476493,11.000469 3.2949877,7.8528382 5.1305022,5.4913313 8.2732418,4.9206907 9.4934451,4.6991331 9.6227035,4.6116809 10.431099,3.4607509 c 1.648721,-2.3473226 4.218548,-3.55156571 7.171019,-3.36040301 2.010899,0.13019898 3.393373,0.73320815 4.903409,2.13877461 1.190137,1.1078001 2.46024,3.3298983 2.460585,4.3049008 1.13e-4,0.3192914 0.227032,0.6207991 0.621782,0.8261647 1.406723,0.7318363 2.316888,2.3408914 2.316888,4.095963 0,1.85985 -0.911211,3.371522 -2.53392,4.203696 -0.78067,0.400352 -1.421245,0.429735 -9.267551,0.425114 -7.7661184,-0.0047 -8.5000098,-0.03832 -9.3330645,-0.429144 z M 24.492762,14.67443 c 1.015789,-0.356055 2.060825,-1.681859 2.211569,-2.80575 C 26.892118,10.468628 25.950418,8.8690493 24.608248,8.3082552 24.017192,8.0612965 23.876584,7.8523051 23.746359,7.0271981 23.288858,4.1284744 20.793875,1.7246799 17.772399,1.2715816 15.342265,0.90716061 12.331732,2.5177004 11.081422,4.8510412 l -0.69457,1.2962147 -1.195704,0.0035 c -2.1606647,0.00633 -3.7998581,1.2848125 -4.3569211,3.3981637 -0.5072026,1.9241944 0.6287507,4.0981994 2.6121943,4.9992584 0.8207382,0.372853 1.6300278,0.410893 8.5913758,0.403834 5.355294,-0.0055 7.918634,-0.08959 8.454965,-0.277584 z"
       id="path1" /></g></svg>
