<?xml version="1.0" encoding="UTF-8" standalone="no"?>
<!-- Created with Inkscape (http://www.inkscape.org/) -->

<svg
   width="115"
   height="80"
   viewBox="0 0 30.427085 21.166666"
   version="1.1"
   id="svg1"
   xml:space="preserve"
   inkscape:export-filename="partly_clouds.svg"
   inkscape:export-xdpi="96"
   inkscape:export-ydpi="96"
   xmlns:inkscape="http://www.inkscape.org/namespaces/inkscape"
   xmlns:sodipodi="http://sodipodi.sourceforge.net/DTD/sodipodi-0.dtd"
   xmlns="http://www.w3.org/2000/svg"
   xmlns:svg="http://www.w3.org/2000/svg"><sodipodi:namedview
     id="namedview1"
     pagecolor="#ffffff"
     bordercolor="#000000"
     borderopacity="0.25"
     inkscape:showpageshadow="2"
     inkscape:pageopacity="0.0"
     inkscape:pagecheckerboard="0"
     inkscape:deskcolor="#d1d1d1"
     inkscape:document-units="mm"><inkscape:page
       x="0"
       y="0"
       width="30.427086"
       height="21.166666"
       id="page2"
       margin="0"
       bleed="0" /></sodipodi:namedview><defs
     id="defs1" /><g
     inkscape:label="Layer 1"
     inkscape:groupmode="layer"
     id="layer1"><path
       style="fill:#000000;stroke-width:1.0423"
       d="m 14.543021,19.709563 c 0,-1.070166 0.02566,-1.109817 0.670134,-1.035662 0.599641,0.069 0.678017,0.186053 0.745067,1.112769 0.073,1.008946 0.05571,1.035662 -0.670134,1.035662 -0.72219,0 -0.745067,-0.03417 -0.745067,-1.112769 z M 7.8383045,17.894381 C 7.3904288,17.399484 7.395623,17.3788 8.1596247,16.614797 l 0.7765551,-0.776554 0.4916355,0.491635 0.4916375,0.491636 -0.8129573,0.787948 -0.8129561,0.787948 z M 21.294143,17.706385 c -0.766689,-0.800251 -0.79115,-0.929355 -0.274051,-1.446454 0.3508,-0.3508 0.452957,-0.316928 1.151777,0.381892 l 0.766834,0.766834 -0.492784,0.492785 -0.492783,0.492784 z M 13.002672,16.547433 C 9.8585948,15.393998 8.2446416,11.998764 9.2018055,8.5516402 9.5180949,7.4125593 11.131483,5.6043654 12.41649,4.9488039 c 4.795702,-2.4465853 10.369149,2.2006495 8.861012,7.3884631 -1.010209,3.474997 -4.893335,5.450699 -8.27483,4.210166 z m 4.586414,-1.631112 C 19.82194,13.745016 20.768222,10.858482 19.687205,8.5162324 18.271686,5.4492178 14.131641,4.7295818 11.728414,7.13281 c -1.020664,1.0206647 -1.42498,2.0014854 -1.424122,3.454747 0.0022,3.789116 3.899205,6.10477 7.284794,4.328764 z M 4.8403504,10.648478 c 0.068996,-0.599641 0.1860523,-0.6780174 1.1127692,-0.7450664 1.0089452,-0.073 1.0356619,-0.05571 1.0356619,0.6701334 0,0.722191 -0.034165,0.745067 -1.1127693,0.745067 -1.070166,0 -1.1098172,-0.02565 -1.0356618,-0.670134 z m 18.4753356,-0.06092 c 0,-0.7039794 0.04062,-0.7310554 1.096584,-0.7310554 1.055968,0 1.096583,0.02708 1.096583,0.7310554 0,0.703979 -0.04062,0.731055 -1.096583,0.731055 -1.055969,0 -1.096584,-0.02708 -1.096584,-0.731055 z M 8.0991554,4.5098224 C 7.4772782,3.8607225 7.4483667,3.7573453 7.7924728,3.4132392 8.3156795,2.8900325 8.5040018,2.9295732 9.2632377,3.7220444 9.9014958,4.3882423 9.9083388,4.4241136 9.4724047,4.8186276 8.8895165,5.3461342 8.9033797,5.3492516 8.0991554,4.5098224 Z M 20.927573,4.9340611 C 20.482997,4.4894859 20.569892,4.1617614 21.323878,3.4393975 l 0.688727,-0.6598428 0.449424,0.496608 c 0.43959,0.4857416 0.434186,0.5125125 -0.246948,1.2234643 -0.781474,0.8156825 -0.874778,0.8471652 -1.287508,0.4344341 z M 14.543021,1.4493636 c 0,-1.05596899 0.02708,-1.09658311 0.731056,-1.09658311 0.703979,0 0.731056,0.0406141 0.731056,1.09658311 0,1.055969 -0.02708,1.0965831 -0.731056,1.0965831 -0.703979,0 -0.731056,-0.040614 -0.731056,-1.0965831 z"
       id="path1" /></g></svg>
