<?xml version="1.0" encoding="UTF-8" standalone="no"?>
<!-- Created with Inkscape (http://www.inkscape.org/) -->

<svg
   width="115"
   height="80"
   viewBox="0 0 30.427085 21.166666"
   version="1.1"
   id="svg1"
   xml:space="preserve"
   xmlns="http://www.w3.org/2000/svg"
   xmlns:svg="http://www.w3.org/2000/svg"><defs
     id="defs1" /><g
     id="layer1"><path
       style="fill:#000000"
       d="m 9.1833838,20.683053 c -0.306536,-0.306536 -0.09749,-1.036056 0.4461264,-1.556873 l 0.5806368,-0.556286 0.227634,0.652992 c 0.183994,0.527807 0.16849,0.743258 -0.08087,1.123835 -0.295292,0.450673 -0.8890198,0.620835 -1.1735232,0.336332 z m 3.2282542,0 c -0.274812,-0.274812 -0.119292,-0.861444 0.388295,-1.464678 0.603703,-0.71746 0.787518,-0.676452 0.965907,0.215493 0.09116,0.455821 0.03106,0.750002 -0.206977,1.013028 -0.336743,0.372097 -0.896134,0.487248 -1.147225,0.236157 z m -0.941575,-3.125141 c 0,-0.23921 0.239768,-0.74928 0.532818,-1.133488 l 0.532818,-0.69856 0.284724,0.677158 c 0.394506,0.938254 0.09093,1.589819 -0.740736,1.589819 -0.489782,0 -0.609624,-0.0855 -0.609624,-0.434929 z m 3.228255,0.366796 c 0,-0.0513 0.306439,-1.214587 0.680976,-2.585084 0.374536,-1.370497 0.744929,-2.786896 0.823094,-3.147553 l 0.142119,-0.655739 h -0.836691 c -0.709965,0 -0.819451,-0.05432 -0.722863,-0.358642 0.06261,-0.197253 0.254002,-0.900912 0.425324,-1.5636858 0.171322,-0.662773 0.402101,-1.545523 0.512842,-1.961665 l 0.201348,-0.756622 h 2.312531 c 1.271891,0 2.311453,0.068096 2.310136,0.1513244 -0.0013,0.083228 -0.136432,0.6506946 -0.300254,1.2610366 -0.163823,0.610342 -0.298937,1.127436 -0.300255,1.149099 -0.0013,0.02166 0.412807,0.06706 0.920275,0.100883 l 0.922668,0.0615 -1.284608,1.5132438 c -0.706535,0.832284 -2.302066,2.721929 -3.545625,4.19921 -1.24356,1.477282 -2.261017,2.643995 -2.261017,2.592697 z M 7.8382779,14.347514 C 6.0903162,13.550913 5.066199,12.127131 4.8693626,10.219969 4.5907789,7.5207532 6.5539171,5.0589519 9.2385084,4.7410018 10.220142,4.6247417 10.314869,4.5603303 10.981732,3.5556589 11.824067,2.2866273 12.75856,1.5372917 14.278741,0.91190892 c 1.409795,-0.5799715 3.693866,-0.6389866 5.108414,-0.1319897 2.050136,0.73480228 3.863206,2.65064768 4.482741,4.73684918 0.223603,0.7529508 0.55024,1.2293772 1.313088,1.9152438 1.82086,1.637109 2.050839,4.0105318 0.563459,5.8149818 -1.010117,1.225447 -1.881553,1.508009 -4.666668,1.513161 l -2.395359,0.0044 0.30038,-0.453974 c 0.26893,-0.406441 0.509168,-0.464536 2.294476,-0.554856 2.150345,-0.108788 3.011673,-0.434822 3.743724,-1.417092 0.440427,-0.590968 0.674889,-1.772024 0.494478,-2.4908388 -0.18231,-0.726348 -1.114133,-1.753607 -1.881595,-2.074273 C 23.077831,7.5403532 22.970693,7.3904412 22.97056,6.842568 22.970326,5.8821424 21.937922,3.865375 21.045308,3.081649 19.796844,1.9854835 18.656492,1.5683766 16.917742,1.5719079 15.739167,1.5742979 15.183268,1.6817732 14.404182,2.0578531 13.147585,2.6644362 11.94788,3.851766 11.446652,4.9848744 L 11.060399,5.8580641 H 9.9739642 c -1.4816325,0 -2.5978276,0.5961391 -3.356695,1.7927491 -1.4276959,2.251242 -0.2705251,5.1716928 2.330721,5.8822388 0.443885,0.12125 1.9256128,0.220961 3.2927288,0.22158 2.462041,0.0011 2.485052,0.0054 2.42119,0.455098 -0.0631,0.444326 -0.126648,0.455011 -2.99008,0.502769 -2.5841423,0.0431 -3.0315757,5.01e-4 -3.8335511,-0.364985 z"
       id="path1" /></g></svg>
