<?xml version="1.0" encoding="UTF-8" standalone="no"?>
<!-- Created with Inkscape (http://www.inkscape.org/) -->

<svg
   width="115"
   height="80"
   viewBox="0 0 30.427085 21.166666"
   version="1.1"
   id="svg1"
   xml:space="preserve"
   inkscape:export-filename="cold.svg"
   inkscape:export-xdpi="96"
   inkscape:export-ydpi="96"
   xmlns:inkscape="http://www.inkscape.org/namespaces/inkscape"
   xmlns:sodipodi="http://sodipodi.sourceforge.net/DTD/sodipodi-0.dtd"
   xmlns="http://www.w3.org/2000/svg"
   xmlns:svg="http://www.w3.org/2000/svg"><sodipodi:namedview
     id="namedview1"
     pagecolor="#ffffff"
     bordercolor="#000000"
     borderopacity="0.25"
     inkscape:showpageshadow="2"
     inkscape:pageopacity="0.0"
     inkscape:pagecheckerboard="0"
     inkscape:deskcolor="#d1d1d1"
     inkscape:document-units="mm"><inkscape:page
       x="0"
       y="0"
       width="30.427086"
       height="21.166666"
       id="page2"
       margin="0"
       bleed="0" /></sodipodi:namedview><defs
     id="defs1" /><g
     inkscape:label="Layer 1"
     inkscape:groupmode="layer"
     id="layer1"><path
       style="fill:#000000"
       d="m 14.086423,20.773744 c -2.39831,-0.895009 -3.673759,-2.689276 -3.673759,-5.168143 0,-1.326584 0.692474,-3.220456 1.319136,-3.607754 0.163523,-0.101063 0.268525,-1.839434 0.268776,-4.4497217 4.65e-4,-4.8472159 0.22079,-5.6503267 1.851672,-6.74956481 1.755282,-1.18308606 4.343345,-0.43021901 5.357401,1.55846701 0.383959,0.7529916 0.462679,1.6355493 0.463021,5.1910978 2.5e-4,2.6102877 0.105253,4.3486587 0.268775,4.4497217 0.606275,0.374698 1.319136,2.280518 1.319136,3.526685 0,2.147417 -1.098176,4.000498 -2.933109,4.949379 -1.127913,0.583266 -3.106679,0.723161 -4.241049,0.299833 z m 4.011871,-1.569237 c 2.104114,-1.417963 2.574748,-4.061266 1.096502,-6.158471 L 18.350164,11.847747 V 7.4695064 3.0912645 L 17.576767,2.317867 c -1.067413,-1.0674129 -2.412876,-1.0674129 -3.480289,0 l -0.773397,0.7733975 v 4.3782419 4.3782406 l -0.844631,1.198289 c -1.478247,2.097205 -1.007613,4.740508 1.096501,6.158471 1.219392,0.821748 3.303951,0.821748 4.523343,0 z m -3.093257,-1.51253 c -1.538459,-0.636305 -1.860999,-2.55621 -0.623623,-3.712092 0.714127,-0.667095 0.79375,-0.903341 0.79375,-2.355112 0,-1.544824 0.02821,-1.613637 0.661459,-1.613637 0.63325,0 0.661458,0.06881 0.661458,1.613637 0,1.451771 0.07962,1.688017 0.79375,2.355112 0.977222,0.912862 1.05277,2.061856 0.198437,3.017993 -0.680596,0.761698 -1.660257,1.035307 -2.485231,0.694099 z"
       id="path1" /></g></svg>
